<svg width="100%" viewBox="0 0 680 560" xmlns="http://www.w3.org/2000/svg" style="background:#0a0a0a">
  <style>
    text { font-family: 'DM Sans', sans-serif; }
    .ts { font-size: 12px; fill: #8a8680; }
    .th { font-size: 14px; fill: #e8e4de; font-weight: 500; }
    .leader { stroke: #5a5650; stroke-width: 0.5; stroke-dasharray: 3 3; }
  </style>
  <defs>
    <marker id="arrow" viewBox="0 0 10 10" refX="8" refY="5" markerWidth="6" markerHeight="6" orient="auto-start-reverse">
      <path d="M2 1L8 5L2 9" fill="none" stroke="context-stroke" stroke-width="1.5" stroke-linecap="round" stroke-linejoin="round"/>
    </marker>
  </defs>
  <rect x="160" y="40" width="360" height="480" rx="6" fill="none" stroke="#e8e4de" stroke-width="1.5"/>
  <text class="ts" x="340" y="30" text-anchor="middle">Front</text>
  <line x1="140" y1="120" x2="540" y2="120" stroke="#e8e4de" stroke-width="1.2"/>
  <rect x="118" y="82" width="24" height="36" rx="6" fill="none" stroke="#e8e4de" stroke-width="1.2"/>
  <rect x="118" y="122" width="24" height="36" rx="6" fill="none" stroke="#e8e4de" stroke-width="1.2"/>
  <rect x="538" y="82" width="24" height="36" rx="6" fill="none" stroke="#e8e4de" stroke-width="1.2"/>
  <rect x="538" y="122" width="24" height="36" rx="6" fill="none" stroke="#e8e4de" stroke-width="1.2"/>
  <rect x="172" y="108" width="30" height="24" rx="3" fill="none" stroke="#e8e4de" stroke-width="0.8"/>
  <rect x="478" y="108" width="30" height="24" rx="3" fill="none" stroke="#e8e4de" stroke-width="0.8"/>
  <rect x="206" y="116" width="8" height="8" rx="2" fill="none" stroke="#e8e4de" stroke-width="0.5"/>
  <rect x="466" y="116" width="8" height="8" rx="2" fill="none" stroke="#e8e4de" stroke-width="0.5"/>
  <rect x="280" y="56" width="120" height="50" rx="4" fill="none" stroke="#e8e4de" stroke-width="1"/>
  <text class="ts" x="340" y="78" text-anchor="middle">Battery</text>
  <text class="ts" x="340" y="92" text-anchor="middle">12V</text>
  <rect x="270" y="230" width="140" height="60" rx="6" fill="none" stroke="#e8e4de" stroke-width="1.2"/>
  <text class="th" x="340" y="256" text-anchor="middle">Motor</text>
  <text class="ts" x="340" y="272" text-anchor="middle">12V DC gear motor</text>
  <circle cx="340" cy="306" r="10" fill="none" stroke="#e8e4de" stroke-width="0.8"/>
  <circle cx="340" cy="306" r="3" fill="#e8e4de"/>
  <circle cx="340" cy="222" r="8" fill="none" stroke="#e8e4de" stroke-width="0.8"/>
  <text class="ts" x="340" y="210" text-anchor="middle">Encoder</text>
  <rect x="192" y="244" width="50" height="30" rx="3" fill="none" stroke="#e8e4de" stroke-width="0.8"/>
  <text class="ts" x="217" y="264" text-anchor="middle">Wago</text>
  <rect x="430" y="210" width="70" height="50" rx="4" fill="rgba(216,90,48,0.15)" stroke="rgba(216,90,48,0.4)" stroke-width="0.5"/>
  <text class="ts" x="465" y="234" text-anchor="middle" fill="#F0997B">L298N</text>
  <text class="ts" x="465" y="248" text-anchor="middle" fill="#F0997B">Driver</text>
  <rect x="430" y="275" width="70" height="50" rx="4" fill="rgba(29,158,117,0.15)" stroke="rgba(29,158,117,0.4)" stroke-width="0.5"/>
  <text class="ts" x="465" y="299" text-anchor="middle" fill="#5DCAA5">Arduino</text>
  <text class="ts" x="465" y="313" text-anchor="middle" fill="#5DCAA5">UNO</text>
  <path d="M410 260 L428 240" fill="none" stroke="#e8e4de" stroke-width="0.5" opacity="0.4"/>
  <path d="M500 260 L500 275" fill="none" stroke="#e8e4de" stroke-width="0.5" opacity="0.4"/>
  <text class="ts" x="340" y="545" text-anchor="middle">Rear (driven)</text>
  <line x1="140" y1="440" x2="540" y2="440" stroke="#e8e4de" stroke-width="1.2"/>
  <rect x="118" y="402" width="24" height="36" rx="6" fill="none" stroke="#e8e4de" stroke-width="1.2"/>
  <rect x="118" y="442" width="24" height="36" rx="6" fill="none" stroke="#e8e4de" stroke-width="1.2"/>
  <rect x="538" y="402" width="24" height="36" rx="6" fill="none" stroke="#e8e4de" stroke-width="1.2"/>
  <rect x="538" y="442" width="24" height="36" rx="6" fill="none" stroke="#e8e4de" stroke-width="1.2"/>
  <rect x="172" y="428" width="30" height="24" rx="3" fill="none" stroke="#e8e4de" stroke-width="0.8"/>
  <rect x="478" y="428" width="30" height="24" rx="3" fill="none" stroke="#e8e4de" stroke-width="0.8"/>
  <circle cx="340" cy="440" r="16" fill="none" stroke="#e8e4de" stroke-width="1"/>
  <circle cx="340" cy="440" r="3" fill="#e8e4de"/>
  <rect x="206" y="436" width="8" height="8" rx="2" fill="none" stroke="#e8e4de" stroke-width="0.5"/>
  <rect x="466" y="436" width="8" height="8" rx="2" fill="none" stroke="#e8e4de" stroke-width="0.5"/>
  <circle cx="220" cy="440" r="6" fill="none" stroke="#e8e4de" stroke-width="0.5"/>
  <circle cx="460" cy="440" r="6" fill="none" stroke="#e8e4de" stroke-width="0.5"/>
  <line x1="332" y1="316" x2="332" y2="424" stroke="#e8e4de" stroke-width="1" opacity="0.6"/>
  <line x1="348" y1="316" x2="348" y2="424" stroke="#e8e4de" stroke-width="1" opacity="0.6"/>
  <text class="ts" x="320" y="370" text-anchor="end">Belt</text>
  <line x1="80" y1="320" x2="80" y2="260" stroke="#e8e4de" stroke-width="1.5" marker-end="url(#arrow)" opacity="0.5"/>
  <text class="ts" x="80" y="340" text-anchor="middle">Travel</text>
  <line class="leader" x1="562" y1="100" x2="610" y2="74"/>
  <text class="ts" x="616" y="78">Flanged wheels</text>
  <line class="leader" x1="508" y1="120" x2="610" y2="140"/>
  <text class="ts" x="616" y="144">Pillow blocks</text>
  <line class="leader" x1="474" y1="440" x2="610" y2="460"/>
  <text class="ts" x="616" y="464">Bearings + collars</text>
</svg>